<svg xmlns="http://www.w3.org/2000/svg" xmlns:xlink="http://www.w3.org/1999/xlink" width="500" zoomAndPan="magnify" viewBox="0 0 375 374.999991" height="500" preserveAspectRatio="xMidYMid meet" version="1.0"><defs><g/><clipPath id="38d93b8bba"><path d="M 187 127 L 262.5 127 L 262.5 153 L 187 153 Z M 187 127 " clip-rule="nonzero"/></clipPath><clipPath id="2a27080b6d"><path d="M 112.5 126 L 188 126 L 188 153 L 112.5 153 Z M 112.5 126 " clip-rule="nonzero"/></clipPath><clipPath id="2e1987a104"><path d="M 112.5 142 L 188 142 L 188 193.6875 L 112.5 193.6875 Z M 112.5 142 " clip-rule="nonzero"/></clipPath><clipPath id="25e0eee9de"><path d="M 187 142 L 262.5 142 L 262.5 193.6875 L 187 193.6875 Z M 187 142 " clip-rule="nonzero"/></clipPath><clipPath id="db4ef5a480"><path d="M 189 111.1875 L 247 111.1875 L 247 142 L 189 142 Z M 189 111.1875 " clip-rule="nonzero"/></clipPath><clipPath id="f2f8233949"><path d="M 128 111.1875 L 186 111.1875 L 186 142 L 128 142 Z M 128 111.1875 " clip-rule="nonzero"/></clipPath></defs><g clip-path="url(#38d93b8bba)"><path fill="#efb53e" d="M 260.015625 136.535156 C 260.789062 133.773438 262.484375 128.265625 262.484375 128.265625 C 198.140625 122.84375 187.5 152.042969 187.5 152.042969 C 202.429688 132.890625 248.785156 135.578125 260.015625 136.535156 " fill-opacity="1" fill-rule="nonzero"/></g><g clip-path="url(#2a27080b6d)"><path fill="#d62b31" d="M 115.230469 135.421875 C 114.5 132.648438 112.886719 127.113281 112.886719 127.113281 C 177.308594 122.683594 187.5 152.042969 187.5 152.042969 C 172.867188 132.664062 126.476562 134.636719 115.230469 135.421875 " fill-opacity="1" fill-rule="nonzero"/></g><g clip-path="url(#2e1987a104)"><path fill="#d62b31" d="M 112.511719 143.089844 L 127.488281 179.414062 C 151.539062 182.332031 173.359375 175.546875 187.5 193.6875 L 187.5 158.359375 C 170.464844 136.507812 112.511719 143.089844 112.511719 143.089844 " fill-opacity="1" fill-rule="nonzero"/></g><g clip-path="url(#25e0eee9de)"><path fill="#efb53e" d="M 262.484375 143.089844 L 247.511719 179.414062 C 223.460938 182.332031 201.640625 175.546875 187.5 193.6875 L 187.5 158.359375 C 204.535156 136.507812 262.484375 143.089844 262.484375 143.089844 " fill-opacity="1" fill-rule="nonzero"/></g><g clip-path="url(#db4ef5a480)"><path fill="#efb53e" d="M 246.9375 111.191406 L 244.886719 119.84375 C 225.839844 121.714844 198.738281 127.003906 189.300781 141.914062 C 189.300781 141.914062 195.652344 116.609375 246.9375 111.191406 " fill-opacity="1" fill-rule="nonzero"/></g><g clip-path="url(#f2f8233949)"><path fill="#d62b31" d="M 128.0625 111.191406 L 130.113281 119.84375 C 149.160156 121.714844 176.261719 127.003906 185.699219 141.914062 C 185.699219 141.914062 179.347656 116.609375 128.0625 111.191406 " fill-opacity="1" fill-rule="nonzero"/></g><g fill="#231f20" fill-opacity="1"><g transform="translate(104.826299, 239.123962)"><g><path d="M 2.46875 -2.203125 L 2.46875 -29.953125 C 2.46875 -31.171875 2.8125 -32.066406 3.5 -32.640625 C 4.195312 -33.222656 5.046875 -33.515625 6.046875 -33.515625 C 7.421875 -33.515625 8.46875 -33.304688 9.1875 -32.890625 C 9.90625 -32.484375 10.710938 -31.503906 11.609375 -29.953125 L 16.328125 -21.6875 L 21.046875 -29.953125 C 21.929688 -31.503906 22.734375 -32.484375 23.453125 -32.890625 C 24.171875 -33.304688 25.21875 -33.515625 26.59375 -33.515625 C 27.601562 -33.515625 28.453125 -33.222656 29.140625 -32.640625 C 29.828125 -32.066406 30.171875 -31.171875 30.171875 -29.953125 L 30.171875 -2.203125 C 30.171875 -1.492188 29.816406 -0.945312 29.109375 -0.5625 C 28.410156 -0.1875 27.570312 0 26.59375 0 C 25.613281 0 24.769531 -0.1875 24.0625 -0.5625 C 23.363281 -0.945312 23.015625 -1.492188 23.015625 -2.203125 L 23.015625 -19.40625 L 18.625 -11.875 C 18.101562 -10.988281 17.304688 -10.546875 16.234375 -10.546875 C 15.191406 -10.546875 14.441406 -10.988281 13.984375 -11.875 L 9.625 -19.859375 L 9.625 -2.203125 C 9.625 -1.492188 9.269531 -0.945312 8.5625 -0.5625 C 7.863281 -0.1875 7.023438 0 6.046875 0 C 5.066406 0 4.222656 -0.1875 3.515625 -0.5625 C 2.816406 -0.945312 2.46875 -1.492188 2.46875 -2.203125 Z M 2.46875 -2.203125 "/></g></g></g><g fill="#231f20" fill-opacity="1"><g transform="translate(137.470144, 239.123962)"><g><path d="M 0.1875 -30.59375 C 0.1875 -31.382812 0.726562 -32.066406 1.8125 -32.640625 C 2.894531 -33.222656 3.972656 -33.515625 5.046875 -33.515625 C 5.597656 -33.515625 6.007812 -33.414062 6.28125 -33.21875 C 6.5625 -33.019531 6.835938 -32.675781 7.109375 -32.1875 L 13.53125 -20.40625 L 19.90625 -32.1875 C 20.363281 -33.070312 21.050781 -33.515625 21.96875 -33.515625 C 23.039062 -33.515625 24.117188 -33.222656 25.203125 -32.640625 C 26.285156 -32.066406 26.828125 -31.382812 26.828125 -30.59375 C 26.828125 -30.375 26.796875 -30.203125 26.734375 -30.078125 L 17.28125 -14.359375 C 17.164062 -14.171875 17.109375 -13.957031 17.109375 -13.71875 L 17.109375 -2.203125 C 17.109375 -1.492188 16.753906 -0.945312 16.046875 -0.5625 C 15.347656 -0.1875 14.507812 0 13.53125 0 C 12.550781 0 11.707031 -0.1875 11 -0.5625 C 10.300781 -0.945312 9.953125 -1.492188 9.953125 -2.203125 L 9.953125 -13.71875 C 9.953125 -13.957031 9.890625 -14.171875 9.765625 -14.359375 L 0.28125 -30.078125 C 0.21875 -30.203125 0.1875 -30.375 0.1875 -30.59375 Z M 0.1875 -30.59375 "/></g></g></g><g fill="#231f20" fill-opacity="1"><g transform="translate(164.520528, 239.123962)"><g><path d="M 2.46875 -2.15625 L 2.46875 -31.328125 C 2.46875 -32.023438 2.773438 -32.5625 3.390625 -32.9375 C 4.003906 -33.320312 4.738281 -33.515625 5.59375 -33.515625 L 15 -33.515625 C 21.113281 -33.515625 24.171875 -30.796875 24.171875 -25.359375 C 24.171875 -21.691406 22.867188 -19.289062 20.265625 -18.15625 C 21.828125 -17.570312 23.003906 -16.738281 23.796875 -15.65625 C 24.597656 -14.570312 25 -12.960938 25 -10.828125 L 25 -9.859375 C 25 -6.429688 24.164062 -3.929688 22.5 -2.359375 C 20.832031 -0.785156 18.59375 0 15.78125 0 L 5.59375 0 C 4.644531 0 3.882812 -0.210938 3.3125 -0.640625 C 2.75 -1.066406 2.46875 -1.570312 2.46875 -2.15625 Z M 9.578125 -6.234375 L 14.171875 -6.234375 C 16.617188 -6.234375 17.84375 -7.640625 17.84375 -10.453125 L 17.84375 -11.1875 C 17.84375 -14 16.617188 -15.40625 14.171875 -15.40625 L 9.578125 -15.40625 Z M 9.578125 -20.90625 L 14.40625 -20.90625 C 15.226562 -20.90625 15.867188 -21.21875 16.328125 -21.84375 C 16.785156 -22.476562 17.015625 -23.222656 17.015625 -24.078125 C 17.015625 -24.929688 16.785156 -25.675781 16.328125 -26.3125 C 15.867188 -26.957031 15.226562 -27.28125 14.40625 -27.28125 L 9.578125 -27.28125 Z M 9.578125 -20.90625 "/></g></g></g><g fill="#231f20" fill-opacity="1"><g transform="translate(190.745646, 239.123962)"><g><path d="M 2.109375 -10.546875 L 2.109375 -22.703125 C 2.109375 -26.429688 3.128906 -29.164062 5.171875 -30.90625 C 7.222656 -32.644531 9.945312 -33.515625 13.34375 -33.515625 C 16.769531 -33.515625 19.503906 -32.644531 21.546875 -30.90625 C 23.597656 -29.164062 24.625 -26.429688 24.625 -22.703125 L 24.625 -10.546875 C 24.625 -6.816406 23.597656 -4.078125 21.546875 -2.328125 C 19.503906 -0.585938 16.769531 0.28125 13.34375 0.28125 C 9.945312 0.28125 7.222656 -0.585938 5.171875 -2.328125 C 3.128906 -4.078125 2.109375 -6.816406 2.109375 -10.546875 Z M 9.265625 -10.546875 C 9.265625 -7.492188 10.625 -5.96875 13.34375 -5.96875 C 16.09375 -5.96875 17.46875 -7.492188 17.46875 -10.546875 L 17.46875 -22.703125 C 17.46875 -25.753906 16.09375 -27.28125 13.34375 -27.28125 C 10.625 -27.28125 9.265625 -25.753906 9.265625 -22.703125 Z M 9.265625 -10.546875 "/></g></g></g><g fill="#231f20" fill-opacity="1"><g transform="translate(217.475079, 239.123962)"><g><path d="M 2.109375 -10.546875 L 2.109375 -22.703125 C 2.109375 -26.429688 3.128906 -29.164062 5.171875 -30.90625 C 7.222656 -32.644531 9.945312 -33.515625 13.34375 -33.515625 C 16.769531 -33.515625 19.503906 -32.644531 21.546875 -30.90625 C 23.597656 -29.164062 24.625 -26.429688 24.625 -22.703125 L 24.625 -10.546875 C 24.625 -6.816406 23.597656 -4.078125 21.546875 -2.328125 C 19.503906 -0.585938 16.769531 0.28125 13.34375 0.28125 C 9.945312 0.28125 7.222656 -0.585938 5.171875 -2.328125 C 3.128906 -4.078125 2.109375 -6.816406 2.109375 -10.546875 Z M 9.265625 -10.546875 C 9.265625 -7.492188 10.625 -5.96875 13.34375 -5.96875 C 16.09375 -5.96875 17.46875 -7.492188 17.46875 -10.546875 L 17.46875 -22.703125 C 17.46875 -25.753906 16.09375 -27.28125 13.34375 -27.28125 C 10.625 -27.28125 9.265625 -25.753906 9.265625 -22.703125 Z M 9.265625 -10.546875 "/></g></g></g><g fill="#231f20" fill-opacity="1"><g transform="translate(244.204513, 239.123962)"><g><path d="M 2.46875 -2.203125 L 2.46875 -31.375 C 2.46875 -32.070312 2.816406 -32.601562 3.515625 -32.96875 C 4.222656 -33.332031 5.066406 -33.515625 6.046875 -33.515625 C 7.023438 -33.515625 7.863281 -33.332031 8.5625 -32.96875 C 9.269531 -32.601562 9.625 -32.070312 9.625 -31.375 L 9.625 -20.359375 L 18.203125 -32.515625 C 18.660156 -33.179688 19.289062 -33.515625 20.09375 -33.515625 C 21.039062 -33.515625 21.976562 -33.125 22.90625 -32.34375 C 23.84375 -31.570312 24.3125 -30.742188 24.3125 -29.859375 C 24.3125 -29.367188 24.15625 -28.910156 23.84375 -28.484375 L 16.328125 -19.03125 L 25.8125 -4.5 C 26.0625 -4.09375 26.1875 -3.691406 26.1875 -3.296875 C 26.1875 -2.410156 25.726562 -1.59375 24.8125 -0.84375 C 23.894531 -0.09375 22.914062 0.28125 21.875 0.28125 C 20.769531 0.28125 19.945312 -0.164062 19.40625 -1.0625 L 11.5625 -12.984375 L 9.625 -10.5 L 9.625 -2.203125 C 9.625 -1.492188 9.269531 -0.945312 8.5625 -0.5625 C 7.863281 -0.1875 7.023438 0 6.046875 0 C 5.066406 0 4.222656 -0.1875 3.515625 -0.5625 C 2.816406 -0.945312 2.46875 -1.492188 2.46875 -2.203125 Z M 2.46875 -2.203125 "/></g></g></g><g fill="#231f20" fill-opacity="1"><g transform="translate(153.523925, 257.285182)"><g><path d="M 6.265625 -4.953125 C 6.742188 -4.785156 7.132812 -4.515625 7.4375 -4.140625 C 7.75 -3.765625 7.90625 -3.273438 7.90625 -2.671875 C 7.90625 -1.710938 7.625 -1.023438 7.0625 -0.609375 C 6.507812 -0.203125 5.832031 0 5.03125 0 L 1.703125 0 C 1.523438 0 1.375 -0.0546875 1.25 -0.171875 C 1.132812 -0.296875 1.078125 -0.445312 1.078125 -0.625 L 1.078125 -8.453125 C 1.078125 -8.617188 1.132812 -8.757812 1.25 -8.875 C 1.375 -9 1.523438 -9.0625 1.703125 -9.0625 L 5.03125 -9.0625 C 5.8125 -9.0625 6.40625 -8.867188 6.8125 -8.484375 C 7.226562 -8.097656 7.4375 -7.535156 7.4375 -6.796875 C 7.4375 -6.378906 7.335938 -6.007812 7.140625 -5.6875 C 6.941406 -5.363281 6.648438 -5.117188 6.265625 -4.953125 Z M 6.09375 -6.609375 C 6.09375 -7.015625 5.984375 -7.320312 5.765625 -7.53125 C 5.546875 -7.738281 5.238281 -7.84375 4.84375 -7.84375 L 2.390625 -7.84375 L 2.390625 -5.328125 L 4.875 -5.328125 C 5.226562 -5.335938 5.519531 -5.453125 5.75 -5.671875 C 5.976562 -5.890625 6.09375 -6.203125 6.09375 -6.609375 Z M 5.015625 -1.1875 C 5.484375 -1.1875 5.859375 -1.3125 6.140625 -1.5625 C 6.429688 -1.8125 6.578125 -2.179688 6.578125 -2.671875 C 6.578125 -3.628906 6.035156 -4.109375 4.953125 -4.109375 L 2.390625 -4.109375 L 2.390625 -1.1875 Z M 5.015625 -1.1875 "/></g></g></g><g fill="#231f20" fill-opacity="1"><g transform="translate(161.978708, 257.285182)"><g><path d="M 7.34375 -3.390625 C 7.34375 -2.722656 7.191406 -2.117188 6.890625 -1.578125 C 6.585938 -1.046875 6.175781 -0.628906 5.65625 -0.328125 C 5.132812 -0.0234375 4.554688 0.125 3.921875 0.125 C 3.296875 0.125 2.71875 -0.0234375 2.1875 -0.328125 C 1.664062 -0.628906 1.253906 -1.046875 0.953125 -1.578125 C 0.648438 -2.117188 0.5 -2.722656 0.5 -3.390625 C 0.5 -4.066406 0.648438 -4.675781 0.953125 -5.21875 C 1.253906 -5.757812 1.664062 -6.179688 2.1875 -6.484375 C 2.71875 -6.785156 3.296875 -6.9375 3.921875 -6.9375 C 4.554688 -6.9375 5.132812 -6.785156 5.65625 -6.484375 C 6.175781 -6.179688 6.585938 -5.757812 6.890625 -5.21875 C 7.191406 -4.675781 7.34375 -4.066406 7.34375 -3.390625 Z M 6.109375 -3.390625 C 6.109375 -3.859375 6.007812 -4.273438 5.8125 -4.640625 C 5.625 -5.003906 5.363281 -5.285156 5.03125 -5.484375 C 4.695312 -5.691406 4.328125 -5.796875 3.921875 -5.796875 C 3.515625 -5.796875 3.144531 -5.691406 2.8125 -5.484375 C 2.476562 -5.285156 2.210938 -5.003906 2.015625 -4.640625 C 1.828125 -4.273438 1.734375 -3.859375 1.734375 -3.390625 C 1.734375 -2.929688 1.828125 -2.519531 2.015625 -2.15625 C 2.210938 -1.800781 2.476562 -1.519531 2.8125 -1.3125 C 3.144531 -1.113281 3.515625 -1.015625 3.921875 -1.015625 C 4.328125 -1.015625 4.695312 -1.113281 5.03125 -1.3125 C 5.363281 -1.519531 5.625 -1.800781 5.8125 -2.15625 C 6.007812 -2.519531 6.109375 -2.929688 6.109375 -3.390625 Z M 6.109375 -3.390625 "/></g></g></g><g fill="#231f20" fill-opacity="1"><g transform="translate(169.824955, 257.285182)"><g><path d="M 7.34375 -3.390625 C 7.34375 -2.722656 7.191406 -2.117188 6.890625 -1.578125 C 6.585938 -1.046875 6.175781 -0.628906 5.65625 -0.328125 C 5.132812 -0.0234375 4.554688 0.125 3.921875 0.125 C 3.296875 0.125 2.71875 -0.0234375 2.1875 -0.328125 C 1.664062 -0.628906 1.253906 -1.046875 0.953125 -1.578125 C 0.648438 -2.117188 0.5 -2.722656 0.5 -3.390625 C 0.5 -4.066406 0.648438 -4.675781 0.953125 -5.21875 C 1.253906 -5.757812 1.664062 -6.179688 2.1875 -6.484375 C 2.71875 -6.785156 3.296875 -6.9375 3.921875 -6.9375 C 4.554688 -6.9375 5.132812 -6.785156 5.65625 -6.484375 C 6.175781 -6.179688 6.585938 -5.757812 6.890625 -5.21875 C 7.191406 -4.675781 7.34375 -4.066406 7.34375 -3.390625 Z M 6.109375 -3.390625 C 6.109375 -3.859375 6.007812 -4.273438 5.8125 -4.640625 C 5.625 -5.003906 5.363281 -5.285156 5.03125 -5.484375 C 4.695312 -5.691406 4.328125 -5.796875 3.921875 -5.796875 C 3.515625 -5.796875 3.144531 -5.691406 2.8125 -5.484375 C 2.476562 -5.285156 2.210938 -5.003906 2.015625 -4.640625 C 1.828125 -4.273438 1.734375 -3.859375 1.734375 -3.390625 C 1.734375 -2.929688 1.828125 -2.519531 2.015625 -2.15625 C 2.210938 -1.800781 2.476562 -1.519531 2.8125 -1.3125 C 3.144531 -1.113281 3.515625 -1.015625 3.921875 -1.015625 C 4.328125 -1.015625 4.695312 -1.113281 5.03125 -1.3125 C 5.363281 -1.519531 5.625 -1.800781 5.8125 -2.15625 C 6.007812 -2.519531 6.109375 -2.929688 6.109375 -3.390625 Z M 6.109375 -3.390625 "/></g></g></g><g fill="#231f20" fill-opacity="1"><g transform="translate(177.671202, 257.285182)"><g><path d="M 6.46875 -1.078125 C 6.59375 -0.941406 6.65625 -0.789062 6.65625 -0.625 C 6.65625 -0.445312 6.585938 -0.300781 6.453125 -0.1875 C 6.316406 -0.0703125 6.175781 -0.015625 6.03125 -0.015625 C 5.84375 -0.015625 5.691406 -0.0820312 5.578125 -0.21875 L 3.03125 -2.921875 L 2.25 -2.234375 L 2.25 -0.625 C 2.25 -0.445312 2.191406 -0.296875 2.078125 -0.171875 C 1.960938 -0.0546875 1.816406 0 1.640625 0 C 1.460938 0 1.3125 -0.0546875 1.1875 -0.171875 C 1.070312 -0.296875 1.015625 -0.445312 1.015625 -0.625 L 1.015625 -8.96875 C 1.015625 -9.132812 1.070312 -9.273438 1.1875 -9.390625 C 1.3125 -9.515625 1.460938 -9.578125 1.640625 -9.578125 C 1.816406 -9.578125 1.960938 -9.515625 2.078125 -9.390625 C 2.191406 -9.273438 2.25 -9.132812 2.25 -8.96875 L 2.25 -3.703125 L 5.421875 -6.625 C 5.566406 -6.75 5.71875 -6.8125 5.875 -6.8125 C 6.019531 -6.8125 6.15625 -6.75 6.28125 -6.625 C 6.40625 -6.5 6.46875 -6.367188 6.46875 -6.234375 C 6.46875 -6.054688 6.382812 -5.898438 6.21875 -5.765625 L 3.984375 -3.765625 Z M 6.46875 -1.078125 "/></g></g></g><g fill="#231f20" fill-opacity="1"><g transform="translate(184.857127, 257.285182)"><g/></g></g><g fill="#231f20" fill-opacity="1"><g transform="translate(188.44361, 257.285182)"><g><path d="M 3.828125 0.125 C 3.191406 0.125 2.628906 0.0351562 2.140625 -0.140625 C 1.660156 -0.316406 1.203125 -0.601562 0.765625 -1 C 0.585938 -1.15625 0.5 -1.332031 0.5 -1.53125 C 0.5 -1.6875 0.554688 -1.828125 0.671875 -1.953125 C 0.796875 -2.078125 0.9375 -2.140625 1.09375 -2.140625 C 1.25 -2.140625 1.378906 -2.09375 1.484375 -2 C 1.828125 -1.675781 2.179688 -1.4375 2.546875 -1.28125 C 2.910156 -1.132812 3.328125 -1.0625 3.796875 -1.0625 C 4.335938 -1.0625 4.796875 -1.1875 5.171875 -1.4375 C 5.546875 -1.6875 5.734375 -2.003906 5.734375 -2.390625 C 5.722656 -2.835938 5.535156 -3.179688 5.171875 -3.421875 C 4.804688 -3.671875 4.25 -3.878906 3.5 -4.046875 C 2.601562 -4.222656 1.914062 -4.519531 1.4375 -4.9375 C 0.957031 -5.351562 0.71875 -5.925781 0.71875 -6.65625 C 0.71875 -7.164062 0.851562 -7.613281 1.125 -8 C 1.394531 -8.382812 1.765625 -8.679688 2.234375 -8.890625 C 2.710938 -9.097656 3.25 -9.203125 3.84375 -9.203125 C 4.382812 -9.203125 4.890625 -9.113281 5.359375 -8.9375 C 5.835938 -8.757812 6.222656 -8.53125 6.515625 -8.25 C 6.710938 -8.070312 6.8125 -7.882812 6.8125 -7.6875 C 6.8125 -7.539062 6.753906 -7.40625 6.640625 -7.28125 C 6.523438 -7.15625 6.382812 -7.09375 6.21875 -7.09375 C 6.09375 -7.09375 5.992188 -7.128906 5.921875 -7.203125 C 5.691406 -7.421875 5.378906 -7.609375 4.984375 -7.765625 C 4.585938 -7.921875 4.207031 -8 3.84375 -8 C 3.269531 -8 2.8125 -7.878906 2.46875 -7.640625 C 2.125 -7.410156 1.953125 -7.097656 1.953125 -6.703125 C 1.953125 -6.285156 2.125 -5.960938 2.46875 -5.734375 C 2.8125 -5.515625 3.316406 -5.328125 3.984375 -5.171875 C 4.660156 -5.023438 5.210938 -4.851562 5.640625 -4.65625 C 6.066406 -4.457031 6.394531 -4.179688 6.625 -3.828125 C 6.863281 -3.472656 6.984375 -3.007812 6.984375 -2.4375 C 6.984375 -1.9375 6.84375 -1.488281 6.5625 -1.09375 C 6.28125 -0.707031 5.894531 -0.40625 5.40625 -0.1875 C 4.925781 0.0195312 4.398438 0.125 3.828125 0.125 Z M 3.828125 0.125 "/></g></g></g><g fill="#231f20" fill-opacity="1"><g transform="translate(195.979115, 257.285182)"><g><path d="M 2.765625 -5.578125 L 2.765625 -1.71875 C 2.765625 -1.289062 2.957031 -1.078125 3.34375 -1.078125 C 3.40625 -1.078125 3.488281 -1.09375 3.59375 -1.125 C 3.695312 -1.15625 3.773438 -1.171875 3.828125 -1.171875 C 3.941406 -1.171875 4.035156 -1.117188 4.109375 -1.015625 C 4.191406 -0.921875 4.234375 -0.800781 4.234375 -0.65625 C 4.234375 -0.476562 4.128906 -0.320312 3.921875 -0.1875 C 3.710938 -0.0625 3.476562 0 3.21875 0 C 2.9375 0 2.675781 -0.03125 2.4375 -0.09375 C 2.195312 -0.15625 1.984375 -0.304688 1.796875 -0.546875 C 1.617188 -0.796875 1.53125 -1.171875 1.53125 -1.671875 L 1.53125 -5.578125 L 0.78125 -5.578125 C 0.613281 -5.578125 0.472656 -5.628906 0.359375 -5.734375 C 0.253906 -5.847656 0.203125 -5.988281 0.203125 -6.15625 C 0.203125 -6.320312 0.253906 -6.453125 0.359375 -6.546875 C 0.472656 -6.648438 0.613281 -6.703125 0.78125 -6.703125 L 1.53125 -6.703125 L 1.53125 -7.796875 C 1.53125 -7.972656 1.585938 -8.117188 1.703125 -8.234375 C 1.816406 -8.359375 1.96875 -8.421875 2.15625 -8.421875 C 2.320312 -8.421875 2.460938 -8.359375 2.578125 -8.234375 C 2.703125 -8.117188 2.765625 -7.972656 2.765625 -7.796875 L 2.765625 -6.703125 L 3.828125 -6.703125 C 3.992188 -6.703125 4.128906 -6.648438 4.234375 -6.546875 C 4.347656 -6.441406 4.40625 -6.304688 4.40625 -6.140625 C 4.40625 -5.972656 4.347656 -5.835938 4.234375 -5.734375 C 4.128906 -5.628906 3.992188 -5.578125 3.828125 -5.578125 Z M 2.765625 -5.578125 "/></g></g></g><g fill="#231f20" fill-opacity="1"><g transform="translate(200.89921, 257.285182)"><g><path d="M 7.34375 -3.390625 C 7.34375 -2.722656 7.191406 -2.117188 6.890625 -1.578125 C 6.585938 -1.046875 6.175781 -0.628906 5.65625 -0.328125 C 5.132812 -0.0234375 4.554688 0.125 3.921875 0.125 C 3.296875 0.125 2.71875 -0.0234375 2.1875 -0.328125 C 1.664062 -0.628906 1.253906 -1.046875 0.953125 -1.578125 C 0.648438 -2.117188 0.5 -2.722656 0.5 -3.390625 C 0.5 -4.066406 0.648438 -4.675781 0.953125 -5.21875 C 1.253906 -5.757812 1.664062 -6.179688 2.1875 -6.484375 C 2.71875 -6.785156 3.296875 -6.9375 3.921875 -6.9375 C 4.554688 -6.9375 5.132812 -6.785156 5.65625 -6.484375 C 6.175781 -6.179688 6.585938 -5.757812 6.890625 -5.21875 C 7.191406 -4.675781 7.34375 -4.066406 7.34375 -3.390625 Z M 6.109375 -3.390625 C 6.109375 -3.859375 6.007812 -4.273438 5.8125 -4.640625 C 5.625 -5.003906 5.363281 -5.285156 5.03125 -5.484375 C 4.695312 -5.691406 4.328125 -5.796875 3.921875 -5.796875 C 3.515625 -5.796875 3.144531 -5.691406 2.8125 -5.484375 C 2.476562 -5.285156 2.210938 -5.003906 2.015625 -4.640625 C 1.828125 -4.273438 1.734375 -3.859375 1.734375 -3.390625 C 1.734375 -2.929688 1.828125 -2.519531 2.015625 -2.15625 C 2.210938 -1.800781 2.476562 -1.519531 2.8125 -1.3125 C 3.144531 -1.113281 3.515625 -1.015625 3.921875 -1.015625 C 4.328125 -1.015625 4.695312 -1.113281 5.03125 -1.3125 C 5.363281 -1.519531 5.625 -1.800781 5.8125 -2.15625 C 6.007812 -2.519531 6.109375 -2.929688 6.109375 -3.390625 Z M 6.109375 -3.390625 "/></g></g></g><g fill="#231f20" fill-opacity="1"><g transform="translate(208.745457, 257.285182)"><g><path d="M 4.296875 -6.9375 C 4.523438 -6.9375 4.71875 -6.878906 4.875 -6.765625 C 5.039062 -6.648438 5.125 -6.503906 5.125 -6.328125 C 5.125 -6.117188 5.070312 -5.960938 4.96875 -5.859375 C 4.863281 -5.753906 4.734375 -5.703125 4.578125 -5.703125 C 4.492188 -5.703125 4.375 -5.726562 4.21875 -5.78125 C 4.039062 -5.84375 3.898438 -5.875 3.796875 -5.875 C 3.523438 -5.875 3.257812 -5.78125 3 -5.59375 C 2.75 -5.40625 2.546875 -5.148438 2.390625 -4.828125 C 2.234375 -4.503906 2.15625 -4.144531 2.15625 -3.75 L 2.15625 -0.625 C 2.15625 -0.445312 2.09375 -0.296875 1.96875 -0.171875 C 1.851562 -0.0546875 1.707031 0 1.53125 0 C 1.34375 0 1.191406 -0.0546875 1.078125 -0.171875 C 0.972656 -0.285156 0.921875 -0.4375 0.921875 -0.625 L 0.921875 -6.171875 C 0.921875 -6.335938 0.976562 -6.476562 1.09375 -6.59375 C 1.207031 -6.71875 1.351562 -6.78125 1.53125 -6.78125 C 1.707031 -6.78125 1.851562 -6.71875 1.96875 -6.59375 C 2.09375 -6.476562 2.15625 -6.335938 2.15625 -6.171875 L 2.15625 -5.5 C 2.34375 -5.925781 2.625 -6.269531 3 -6.53125 C 3.382812 -6.800781 3.816406 -6.9375 4.296875 -6.9375 Z M 4.296875 -6.9375 "/></g></g></g><g fill="#231f20" fill-opacity="1"><g transform="translate(214.092815, 257.285182)"><g><path d="M 6.875 -3.65625 C 6.863281 -3.5 6.796875 -3.363281 6.671875 -3.25 C 6.554688 -3.144531 6.414062 -3.09375 6.25 -3.09375 L 1.703125 -3.09375 C 1.753906 -2.46875 1.988281 -1.960938 2.40625 -1.578125 C 2.832031 -1.203125 3.347656 -1.015625 3.953125 -1.015625 C 4.367188 -1.015625 4.703125 -1.070312 4.953125 -1.1875 C 5.210938 -1.3125 5.441406 -1.46875 5.640625 -1.65625 C 5.773438 -1.738281 5.898438 -1.78125 6.015625 -1.78125 C 6.171875 -1.78125 6.296875 -1.726562 6.390625 -1.625 C 6.492188 -1.519531 6.546875 -1.394531 6.546875 -1.25 C 6.546875 -1.070312 6.457031 -0.910156 6.28125 -0.765625 C 6.03125 -0.515625 5.695312 -0.300781 5.28125 -0.125 C 4.863281 0.0390625 4.441406 0.125 4.015625 0.125 C 3.316406 0.125 2.703125 -0.0195312 2.171875 -0.3125 C 1.640625 -0.601562 1.226562 -1.007812 0.9375 -1.53125 C 0.644531 -2.0625 0.5 -2.660156 0.5 -3.328125 C 0.5 -4.054688 0.648438 -4.691406 0.953125 -5.234375 C 1.253906 -5.785156 1.644531 -6.207031 2.125 -6.5 C 2.613281 -6.789062 3.140625 -6.9375 3.703125 -6.9375 C 4.253906 -6.9375 4.769531 -6.796875 5.25 -6.515625 C 5.738281 -6.234375 6.128906 -5.835938 6.421875 -5.328125 C 6.710938 -4.828125 6.863281 -4.269531 6.875 -3.65625 Z M 3.703125 -5.796875 C 3.222656 -5.796875 2.804688 -5.660156 2.453125 -5.390625 C 2.097656 -5.117188 1.863281 -4.695312 1.75 -4.125 L 5.5625 -4.125 L 5.5625 -4.234375 C 5.519531 -4.691406 5.316406 -5.066406 4.953125 -5.359375 C 4.585938 -5.648438 4.171875 -5.796875 3.703125 -5.796875 Z M 3.703125 -5.796875 "/></g></g></g></svg>