<?xml version="1.0" encoding="utf-8"?>
<!-- Svg Vector Icons : http://www.onlinewebfonts.com/icon -->
<!DOCTYPE svg PUBLIC "-//W3C//DTD SVG 1.1//EN" "http://www.w3.org/Graphics/SVG/1.1/DTD/svg11.dtd">
<svg version="1.1" xmlns="http://www.w3.org/2000/svg" xmlns:xlink="http://www.w3.org/1999/xlink" x="0px" y="0px" viewBox="0 0 256 256" enable-background="new 0 0 256 256" xml:space="preserve">
<metadata> Svg Vector Icons : http://www.onlinewebfonts.com/icon </metadata>
<g><g><g><path fill="#000000" d="M102.3,35.5c-19.2,14-35.2,25.9-35.6,26.2c-0.8,0.7-0.1,0.5,30.5-10.6c11.4-4.2,20.9-7.6,21-7.6c0.1,0,0.2,7.4,0.2,16.5c0,9.1,0,16.6,0.1,16.7c0.2,0.1,70.5-51.3,71.4-52.2c0.2-0.2-0.3-0.1-1,0.2c-6.5,2.5-50.5,18.4-50.9,18.4c-0.5,0-0.7-3.2-0.8-16.5L137.2,10L102.3,35.5z"/><path fill="#000000" d="M112.9,85.3c-20.1,1.1-34.3,3.2-39.9,5.9c-3.5,1.6-7.3,5.7-8.9,9.1c-0.6,1.3-3.2,8.4-5.9,15.8l-4.9,13.5l-8,0.2c-8.9,0.2-10.2,0.6-13.3,3.4c-2.6,2.4-3.9,5.2-3.9,9c0,3.5,0.8,5.7,3.1,8.2c2.2,2.5,5.1,3.8,9.3,4.1l3.4,0.3l-2,5.5c-3.8,10.5-3.7,9.7-3.7,43.4v29.9l1.3,2.7c3.4,7.3,11.6,11.2,19,9.1c3.4-1,7.2-3.5,8.9-5.8c2.5-3.7,3.2-6,3.5-12.2l0.2-5.8H128h56.9l0.2,5.7c0.2,4.6,0.4,6.3,1.3,8.1c1.6,3.6,3.2,5.7,5.8,7.5c9.7,6.5,22.1,1.8,25.1-9.5c0.7-2.6,0.8-6.5,0.6-31.8c-0.2-32.4-0.1-31.5-4-41.8L212,155l3.8-0.5c4.7-0.6,5.8-1.1,8.2-3.3c3.5-3.2,4.7-8.1,3.3-13.1c-0.8-2.5-3.6-5.7-6.4-7c-2-1-3.2-1.1-10.3-1.3l-8-0.2l-5.4-14.7c-2.9-8.1-6-15.6-6.7-16.9c-1.8-3-5.1-5.9-8.1-7.2c-4.1-1.9-14.9-3.7-28.8-4.9C148,85.4,118.7,84.9,112.9,85.3z M180.8,123.2c3.3,9.7,6,17.9,6,18.2c0,0.5-12,0.6-58.8,0.6c-32.4,0-58.9-0.1-58.9-0.4c0-0.5,11.6-35.2,12-35.9c0.2-0.4,14.1-0.5,47-0.4l46.7,0.1L180.8,123.2z M70.1,167.4c2.6,0.8,5.6,3.3,7.1,5.9c1,1.9,1.3,3,1.3,5.5c0,5.2-2.4,9-6.8,11.1c-6.5,3-14.4-0.6-16.4-7.4c-0.9-3.1-0.9-3.9,0-6.8C57.1,169.3,63.7,165.7,70.1,167.4z M194.7,168.3c3.9,2,6.4,6,6.5,10.5c0,3.4-0.8,5.8-2.9,8.2c-5.9,6.6-16.8,4.8-20.2-3.3c-0.9-2.1-0.8-6.9,0-9.1c1.3-3.2,4.4-6,7.7-7.1C187.9,166.7,192.6,167.2,194.7,168.3z"/></g></g></g>
</svg>