<svg xmlns="http://www.w3.org/2000/svg" width="640.417" height="532.584" xmlns:v="https://vecta.io/nano"><path fill="#fc0217" d="M314.667 1.75c58.645-.559 173 2 233.5 6.5s86.5 49.5 88 78 8.5 121.5-9 262c-7.363 59.119-7.222 95.763-17.982 122.3-14.813 36.53-44.915 51.225-95.018 54.7-47.876 3.321-121.485 6.11-206.5 6.194-58.483.058-122.364-.111-186.978-6.517-11.16-1.106-35.914-3.101-58.512-17.19-33.26-20.737-37.01-58.987-37.01-58.987s-30-214.5-23-325.5c2.625-41.625 2.426-60.489 21.422-82.171C53.667 6.75 92.751 7.738 133.667 6.25l181-4.5z"/><path d="M487.896 79.792c-3.75-.25-15 .625-22.125 2.625 0 0-1.75.125-2.375 3.25 0 0-20.917 100.751-55.584 196.083-6.979 19.191-26.901 23.621-47.05 26.289-13.65 1.807-27.43 2.904-36.085 3.398l-.177-.354c-4.75 0-24.489-1.135-43.95-3.711-20.148-2.668-40.072-7.098-47.05-26.289C198.833 185.751 177.917 85 177.917 85c-.625-3.125-2.375-3.25-2.375-3.25-7.125-2-18.375-2.875-22.125-2.625s-3.25 3.625-3.25 3.625.5 60.5 6 170.5 17 194 17 194-.167 5.334 5 6.167c6.005.968 28.5 5.001 47.833 2.334 0 0 2.833-.166 4-4.5l25.5-78s7-20.168 29.333-26.501c5.494-1.558 10.925-2.647 16.174-3.392l-.196.392c12-1.332 33.334-2.666 55.667 3.666s29.333 26.502 29.333 26.502l25.5 78c1.167 4.334 4 4.5 4 4.5 19.334 2.666 41.828-1.367 47.834-2.334 5.166-.834 5-6.168 5-6.168s11.5-84 17-194 6-170.5 6-170.5.501-3.374-3.249-3.624zm-180.63 428.154c-43.558 0-82.479-1.657-127.546-3.575l-17.904-.759-.516-.021c-13.943-.555-27.46-1.301-38.062-2.1-19.284-1.452-39.474-4.092-55.754-18.676-7.418-6.644-13.194-15.582-17.169-26.565-.514-1.42-1.217-3.364-5.917-41.452l-4.818-40.376-2.408-22.015c-5.267-47.719-10.712-97.062-12.31-160.144-.378-14.924.059-47.768.505-64.765.633-24.125 1.694-45.292 8.297-59.984C45.001 42.29 78.071 30.8 103.999 30.8l.982.001c10.587 0 24.02-.474 35.872-.892l10.831-.369 163.422-3.966 12.163-.053c37.792 0 90.094 1.32 136.238 2.484l54.429 1.292c34.921.698 58.299 6.891 73.57 19.491 15.774 13.015 23.122 32.615 23.122 61.682l.202 14.091c.676 35.156 2.082 108.311-10.375 215.569l-4.344 38.233c-3.394 30.265-5.846 52.132-8.943 69.923-7.937 45.578-49.464 52.905-84.755 54.197l-23.927 1.068-38.571 1.653-135.035 2.738-1.614.004zM66.409 450.761c3.001 8.176 7.178 14.699 12.419 19.394 12.319 11.035 28.641 13.102 45.688 14.387 10.408.783 23.711 1.517 37.461 2.064l.549.022 17.917.758 126.823 3.561 1.599-.001c51.804-.051 101.57-1.662 134.5-2.729l38.314-1.644 24.112-1.076c54.521-1.996 65.205-20.465 68.629-40.125 3.01-17.283 5.438-38.935 8.797-68.901l4.352-38.3c12.325-106.119 10.934-178.498 10.266-213.282l-.206-14.417c0-46.787-20.195-62.981-80.032-64.177l-54.519-1.294-135.809-2.479-12.005.052c-48.989.456-137.182 3.145-163.046 3.958l-10.767.367-36.468.902-.985-.001c-20.766 0-47.04 9.352-54.829 26.684-5.31 11.815-6.225 31.202-6.809 53.462-.441 16.818-.875 49.246-.505 63.888 1.579 62.363 6.985 111.343 12.213 158.71l2.413 22.063c.762 7.072 8.386 71.316 9.928 78.154z" fill="#fff"/></svg>