<svg xmlns="http://www.w3.org/2000/svg" xmlns:xlink="http://www.w3.org/1999/xlink" zoomAndPan="magnify" preserveAspectRatio="xMidYMid meet" version="1.0" viewBox="89.94 146.04 194.97 90.98"><defs><g/><clipPath id="a6379d0ff0"><path d="M 90.125 146.035156 L 283 146.035156 L 283 174 L 90.125 174 Z M 90.125 146.035156 " clip-rule="nonzero"/></clipPath><clipPath id="0008e4c9ac"><path d="M 220 170 L 284.867188 170 L 284.867188 185 L 220 185 Z M 220 170 " clip-rule="nonzero"/></clipPath></defs><g clip-path="url(#a6379d0ff0)"><path fill="#000000" d="M 267.171875 165.726562 C 264.769531 165.273438 262.386719 164.679688 260.046875 163.949219 C 257.707031 163.214844 255.390625 162.371094 253.105469 161.445312 C 250.816406 160.511719 248.542969 159.515625 246.269531 158.480469 L 239.382812 155.332031 C 237.058594 154.277344 234.691406 153.238281 232.253906 152.253906 C 231.640625 152.007812 231.035156 151.761719 230.410156 151.527344 L 229.480469 151.175781 L 228.542969 150.832031 C 227.917969 150.597656 227.273438 150.386719 226.640625 150.164062 C 226.320312 150.058594 225.996094 149.953125 225.675781 149.847656 C 225.351562 149.746094 225.035156 149.636719 224.707031 149.539062 C 224.050781 149.34375 223.402344 149.140625 222.738281 148.960938 C 222.40625 148.867188 222.074219 148.773438 221.742188 148.6875 L 220.734375 148.433594 C 220.066406 148.265625 219.398438 148.09375 218.714844 147.953125 L 217.699219 147.734375 C 217.359375 147.664062 217.019531 147.585938 216.675781 147.53125 L 214.621094 147.160156 L 212.550781 146.851562 C 212.378906 146.828125 212.207031 146.796875 212.03125 146.777344 L 211.511719 146.71875 L 210.472656 146.59375 C 210.125 146.558594 209.78125 146.507812 209.429688 146.480469 L 208.386719 146.386719 C 205.601562 146.144531 202.808594 146.03125 200.023438 146.058594 C 197.242188 146.085938 194.46875 146.222656 191.726562 146.472656 C 186.234375 146.964844 180.867188 147.894531 175.644531 149.09375 C 170.429688 150.3125 165.359375 151.8125 160.449219 153.53125 C 157.996094 154.394531 155.570312 155.296875 153.199219 156.265625 C 150.820312 157.226562 148.476562 158.234375 146.179688 159.289062 C 151.101562 157.644531 156.066406 156.085938 161.117188 154.75 C 166.160156 153.398438 171.285156 152.257812 176.457031 151.367188 C 179.046875 150.921875 181.652344 150.5625 184.261719 150.269531 C 185.566406 150.117188 186.875 150.003906 188.179688 149.890625 L 190.144531 149.757812 C 190.796875 149.714844 191.453125 149.691406 192.109375 149.660156 C 194.726562 149.550781 197.339844 149.527344 199.9375 149.613281 L 201.882812 149.703125 C 202.53125 149.746094 203.175781 149.796875 203.820312 149.84375 L 204.304688 149.878906 L 204.785156 149.921875 L 205.746094 150.015625 C 206.066406 150.050781 206.386719 150.074219 206.707031 150.113281 L 207.664062 150.234375 L 208.617188 150.351562 C 208.9375 150.390625 209.25 150.449219 209.566406 150.496094 L 210.511719 150.640625 L 210.984375 150.714844 C 211.140625 150.738281 211.296875 150.773438 211.453125 150.800781 L 213.320312 151.148438 L 215.167969 151.554688 C 215.476562 151.617188 215.777344 151.699219 216.082031 151.777344 L 216.992188 152.003906 C 217.605469 152.148438 218.195312 152.328125 218.792969 152.496094 L 219.691406 152.75 C 219.988281 152.839844 220.28125 152.9375 220.574219 153.027344 C 221.164062 153.210938 221.746094 153.414062 222.332031 153.609375 C 227 155.226562 231.460938 157.289062 235.933594 159.457031 C 240.414062 161.625 244.917969 163.910156 249.75 165.96875 C 250.675781 166.363281 251.613281 166.746094 252.5625 167.121094 C 249.699219 167.339844 246.828125 167.503906 243.949219 167.628906 L 241.214844 167.726562 L 238.476562 167.792969 C 237.5625 167.820312 236.648438 167.820312 235.734375 167.832031 L 234.363281 167.847656 C 233.90625 167.851562 233.449219 167.847656 232.992188 167.847656 C 229.332031 167.863281 225.664062 167.789062 221.996094 167.679688 C 218.324219 167.570312 214.652344 167.402344 210.976562 167.199219 C 207.300781 166.992188 203.621094 166.757812 199.9375 166.488281 C 192.574219 165.960938 185.203125 165.320312 177.808594 164.699219 C 170.417969 164.074219 163 163.453125 155.554688 162.949219 L 152.761719 162.765625 C 151.832031 162.703125 150.898438 162.644531 149.964844 162.589844 C 148.097656 162.480469 146.226562 162.382812 144.351562 162.296875 C 143.414062 162.253906 142.476562 162.222656 141.539062 162.183594 L 138.714844 162.09375 C 137.773438 162.078125 136.832031 162.058594 135.890625 162.046875 L 134.476562 162.039062 C 134.003906 162.03125 133.535156 162.03125 133.0625 162.035156 C 132.117188 162.042969 131.175781 162.039062 130.230469 162.0625 L 128.8125 162.089844 C 128.34375 162.101562 127.871094 162.121094 127.398438 162.136719 L 125.980469 162.191406 L 124.566406 162.265625 C 123.625 162.308594 122.683594 162.382812 121.742188 162.445312 C 117.976562 162.71875 114.230469 163.175781 110.550781 163.820312 C 106.867188 164.476562 103.261719 165.34375 99.796875 166.449219 C 96.335938 167.550781 93.011719 168.878906 89.941406 170.46875 C 96.578125 167.914062 103.734375 166.316406 110.984375 165.523438 C 118.253906 164.714844 125.617188 164.699219 132.945312 165.03125 C 133.402344 165.050781 133.859375 165.074219 134.320312 165.101562 L 135.691406 165.179688 C 136.609375 165.234375 137.527344 165.304688 138.441406 165.359375 L 141.191406 165.566406 C 142.105469 165.640625 143.023438 165.714844 143.9375 165.796875 C 145.773438 165.960938 147.605469 166.132812 149.4375 166.320312 C 151.273438 166.496094 153.109375 166.691406 154.945312 166.882812 C 162.289062 167.664062 169.632812 168.507812 177.003906 169.328125 C 191.734375 170.964844 206.589844 172.5 221.660156 173.085938 C 229.191406 173.378906 236.769531 173.417969 244.351562 173.109375 C 248.140625 172.941406 251.933594 172.707031 255.710938 172.351562 C 259.488281 171.992188 263.253906 171.535156 266.996094 170.972656 L 282.613281 168.628906 Z M 267.171875 165.726562 " fill-opacity="1" fill-rule="nonzero"/></g><g clip-path="url(#0008e4c9ac)"><path fill="#ff1616" d="M 225.730469 181.707031 C 231.550781 182.980469 237.453125 183.917969 243.386719 184.460938 C 250.828125 185.144531 258.410156 185.242188 265.804688 184.046875 C 269.402344 183.464844 272.964844 182.566406 276.335938 181.171875 C 279.097656 180.027344 284.332031 178.167969 284.828125 174.730469 C 285.007812 173.511719 285.054688 171.667969 283.523438 170.71875 C 281.546875 169.492188 278.898438 170.726562 277.050781 171.429688 C 274.84375 172.269531 272.667969 173.160156 270.285156 173.8125 C 267.308594 174.628906 264.230469 175.304688 261.121094 175.910156 C 257.617188 176.585938 254.046875 177.195312 250.441406 177.652344 C 252.222656 177.949219 255.175781 178.347656 256.777344 178.546875 C 258.6875 178.785156 260.609375 178.992188 262.542969 179.160156 C 264.574219 179.335938 266.671875 179.46875 268.773438 179.535156 C 259.421875 181.414062 243.496094 183.058594 220.335938 180.398438 C 222.15625 180.867188 223.972656 181.324219 225.730469 181.707031 Z M 225.730469 181.707031 " fill-opacity="1" fill-rule="nonzero"/></g><g fill="#000000" fill-opacity="1"><g transform="translate(107.877431, 222.608349)"><g><path d="M 16.558594 -19.746094 L 7.835938 -19.746094 C 6.78125 -19.746094 5.871094 -19.601562 5.128906 -19.335938 C 4.359375 -19.050781 3.738281 -18.59375 3.28125 -17.996094 C 2.804688 -17.398438 2.445312 -16.605469 2.226562 -15.648438 C 2.011719 -14.714844 1.917969 -13.5625 1.917969 -12.246094 L 1.917969 -7.5 C 1.917969 -6.160156 2.011719 -5.007812 2.226562 -4.050781 C 2.445312 -3.113281 2.804688 -2.324219 3.28125 -1.703125 C 3.761719 -1.101562 4.386719 -0.648438 5.128906 -0.382812 C 5.871094 -0.121094 6.78125 0.0234375 7.835938 0.0234375 L 16.558594 0.0234375 C 16.75 0.0234375 17.230469 -0.0703125 17.230469 -0.816406 L 17.230469 -2.707031 C 17.230469 -3.449219 16.75 -3.546875 16.558594 -3.546875 L 7.957031 -3.546875 C 7.453125 -3.546875 7.019531 -3.59375 6.710938 -3.714844 C 6.398438 -3.808594 6.183594 -3.976562 5.992188 -4.242188 C 5.800781 -4.480469 5.679688 -4.839844 5.582031 -5.296875 C 5.511719 -5.773438 5.464844 -6.375 5.464844 -7.09375 L 5.464844 -12.675781 C 5.464844 -13.394531 5.511719 -13.992188 5.582031 -14.449219 C 5.679688 -14.90625 5.800781 -15.238281 5.992188 -15.503906 C 6.183594 -15.765625 6.398438 -15.933594 6.710938 -16.03125 C 7.019531 -16.152344 7.453125 -16.199219 7.957031 -16.199219 L 16.558594 -16.199219 C 16.75 -16.199219 17.230469 -16.292969 17.230469 -17.0625 L 17.230469 -18.90625 C 17.230469 -19.648438 16.75 -19.746094 16.558594 -19.746094 Z M 16.558594 -19.746094 "/></g></g></g><g fill="#000000" fill-opacity="1"><g transform="translate(127.015334, 222.608349)"><g><path d="M 14.761719 -17.515625 C 14.714844 -17.636719 14.664062 -17.78125 14.617188 -17.875 C 14.234375 -19.121094 13.082031 -20.007812 11.765625 -20.007812 C 11.167969 -20.007812 10.589844 -19.839844 10.113281 -19.503906 C 9.96875 -19.433594 9.847656 -19.335938 9.753906 -19.265625 C 9.394531 -18.953125 9.035156 -18.378906 8.699219 -17.515625 L 2.011719 -0.910156 C 1.941406 -0.695312 1.917969 -0.480469 1.964844 -0.335938 C 1.988281 -0.191406 2.109375 0.0234375 2.492188 0.0234375 L 5.128906 0.0234375 C 5.441406 0.0234375 5.679688 -0.167969 5.800781 -0.480469 L 7.164062 -3.90625 L 12.414062 -3.90625 C 12.675781 -3.90625 12.914062 -4.027344 13.035156 -4.242188 C 13.179688 -4.433594 13.203125 -4.695312 13.132812 -4.9375 L 12.269531 -7.070312 C 12.148438 -7.355469 11.886719 -7.546875 11.574219 -7.546875 L 8.601562 -7.546875 L 11.667969 -15.3125 C 11.695312 -15.359375 11.71875 -15.382812 11.71875 -15.382812 L 11.8125 -15.382812 C 11.8125 -15.382812 11.8125 -15.382812 11.835938 -15.335938 L 17.78125 -0.503906 C 17.898438 -0.167969 18.140625 0.0234375 18.476562 0.0234375 L 21.039062 0.0234375 C 21.421875 0.0234375 21.519531 -0.214844 21.566406 -0.335938 C 21.613281 -0.480469 21.589844 -0.695312 21.496094 -0.910156 Z M 14.761719 -17.515625 "/></g></g></g><g fill="#000000" fill-opacity="1"><g transform="translate(150.536679, 222.608349)"><g><path d="M 18.257812 -14.019531 C 18.257812 -13.992188 18.257812 -13.96875 18.257812 -13.945312 C 18.257812 -13.921875 18.257812 -13.898438 18.257812 -13.875 Z M 18.714844 -1.03125 L 14.519531 -8.21875 C 15.695312 -8.363281 16.605469 -8.867188 17.203125 -9.679688 C 17.875 -10.664062 18.234375 -12.078125 18.257812 -13.945312 C 18.234375 -15.816406 17.875 -17.230469 17.203125 -18.210938 C 16.484375 -19.242188 15.289062 -19.746094 13.660156 -19.746094 L 2.613281 -19.746094 C 2.394531 -19.746094 1.917969 -19.671875 1.917969 -18.90625 L 1.917969 -17.011719 C 1.917969 -16.269531 2.394531 -16.199219 2.613281 -16.199219 L 13.035156 -16.199219 C 13.660156 -16.199219 14.066406 -16.03125 14.304688 -15.671875 C 14.570312 -15.3125 14.6875 -14.738281 14.6875 -13.945312 C 14.6875 -13.15625 14.570312 -12.582031 14.304688 -12.222656 C 14.066406 -11.863281 13.660156 -11.695312 13.035156 -11.695312 L 2.613281 -11.695312 C 2.394531 -11.695312 1.917969 -11.621094 1.917969 -10.878906 L 1.917969 -0.816406 C 1.917969 -0.0703125 2.394531 0.0234375 2.613281 0.0234375 L 4.792969 0.0234375 C 5.007812 0.0234375 5.464844 -0.0703125 5.464844 -0.816406 L 5.464844 -8.148438 L 10.519531 -8.148438 L 14.855469 -0.457031 C 14.953125 -0.3125 15.023438 -0.191406 15.121094 -0.121094 C 15.238281 -0.0234375 15.40625 0.0234375 15.625 0.0234375 L 18.257812 0.0234375 C 18.546875 0.0234375 18.761719 -0.167969 18.8125 -0.457031 C 18.835938 -0.695312 18.8125 -0.886719 18.714844 -1.03125 Z M 18.714844 -1.03125 "/></g></g></g><g fill="#000000" fill-opacity="1"><g transform="translate(171.279446, 222.608349)"><g><path d="M 21.015625 -20.007812 L 18.378906 -20.007812 C 18.066406 -20.007812 17.828125 -19.839844 17.683594 -19.503906 L 11.8125 -4.671875 C 11.8125 -4.625 11.789062 -4.625 11.789062 -4.625 L 11.695312 -4.601562 C 11.695312 -4.601562 11.695312 -4.625 11.667969 -4.671875 L 5.703125 -19.503906 C 5.605469 -19.839844 5.367188 -20.007812 5.03125 -20.007812 L 2.445312 -20.007812 C 2.085938 -20.007812 1.964844 -19.769531 1.941406 -19.671875 C 1.894531 -19.503906 1.917969 -19.3125 2.011719 -19.074219 L 8.722656 -2.492188 C 8.792969 -2.347656 8.84375 -2.226562 8.890625 -2.132812 C 9.25 -0.863281 10.421875 0.0234375 11.742188 0.0234375 C 12.339844 0.0234375 12.914062 -0.167969 13.394531 -0.503906 C 13.539062 -0.574219 13.660156 -0.648438 13.753906 -0.742188 C 14.113281 -1.054688 14.449219 -1.628906 14.808594 -2.492188 L 21.46875 -19.074219 C 21.566406 -19.3125 21.589844 -19.503906 21.542969 -19.671875 C 21.496094 -19.792969 21.375 -20.007812 21.015625 -20.007812 Z M 21.015625 -20.007812 "/></g></g></g><g fill="#000000" fill-opacity="1"><g transform="translate(194.752873, 222.608349)"><g><path d="M 4.792969 -19.746094 L 2.589844 -19.746094 C 2.394531 -19.746094 1.917969 -19.648438 1.917969 -18.90625 L 1.917969 -0.816406 C 1.917969 -0.0703125 2.394531 0.0234375 2.589844 0.0234375 L 4.792969 0.0234375 C 4.984375 0.0234375 5.464844 -0.0703125 5.464844 -0.816406 L 5.464844 -18.90625 C 5.464844 -19.648438 4.984375 -19.746094 4.792969 -19.746094 Z M 4.792969 -19.746094 "/></g></g></g><g fill="#000000" fill-opacity="1"><g transform="translate(202.129751, 222.608349)"><g><path d="M 13.492188 -11.789062 L 6.300781 -11.789062 C 5.941406 -11.789062 5.488281 -11.933594 5.488281 -13.109375 L 5.488281 -14.878906 C 5.488281 -15.3125 5.558594 -15.648438 5.679688 -15.886719 C 5.773438 -16.03125 5.917969 -16.199219 6.324219 -16.199219 L 16.078125 -16.199219 C 16.269531 -16.199219 16.75 -16.269531 16.75 -17.011719 L 16.75 -18.929688 C 16.75 -19.671875 16.269531 -19.746094 16.078125 -19.746094 L 5.75 -19.746094 C 4.433594 -19.746094 3.472656 -19.3125 2.851562 -18.425781 C 2.226562 -17.566406 1.917969 -16.414062 1.917969 -15.023438 L 1.917969 -13.203125 C 1.917969 -11.550781 2.253906 -10.207031 2.851562 -9.371094 C 3.59375 -8.386719 4.695312 -8.242188 5.703125 -8.242188 L 12.890625 -8.242188 C 13.25 -8.242188 13.730469 -8.097656 13.730469 -6.925781 L 13.730469 -4.863281 C 13.730469 -4.433594 13.660156 -4.097656 13.515625 -3.859375 C 13.417969 -3.714844 13.273438 -3.546875 12.867188 -3.546875 L 2.636719 -3.546875 C 2.421875 -3.546875 1.941406 -3.472656 1.941406 -2.730469 L 1.941406 -0.816406 C 1.941406 -0.0703125 2.421875 0 2.636719 0 L 13.441406 0 C 14.761719 0 15.742188 -0.457031 16.367188 -1.34375 C 16.964844 -2.203125 17.277344 -3.332031 17.277344 -4.71875 L 17.277344 -6.828125 C 17.277344 -8.386719 16.964844 -9.609375 16.34375 -10.472656 C 15.695312 -11.335938 14.738281 -11.789062 13.492188 -11.789062 Z M 13.492188 -11.789062 "/></g></g></g><g fill="#000000" fill-opacity="1"><g transform="translate(221.315564, 222.608349)"><g><path d="M 18.476562 -19.746094 L 2.613281 -19.746094 C 2.394531 -19.746094 1.917969 -19.671875 1.917969 -18.929688 L 1.917969 -17.0625 C 1.917969 -16.269531 2.394531 -16.199219 2.613281 -16.199219 L 8.769531 -16.199219 L 8.769531 -0.816406 C 8.769531 -0.0703125 9.25 0 9.441406 0 L 11.644531 0 C 11.863281 0 12.316406 -0.0703125 12.316406 -0.816406 L 12.316406 -16.199219 L 18.476562 -16.199219 C 18.691406 -16.199219 19.171875 -16.269531 19.171875 -17.0625 L 19.171875 -18.929688 C 19.171875 -19.671875 18.691406 -19.746094 18.476562 -19.746094 Z M 18.476562 -19.746094 "/></g></g></g><g fill="#000000" fill-opacity="1"><g transform="translate(242.393679, 222.608349)"><g><path d="M 14.761719 -17.515625 C 14.714844 -17.636719 14.664062 -17.78125 14.617188 -17.875 C 14.234375 -19.121094 13.082031 -20.007812 11.765625 -20.007812 C 11.167969 -20.007812 10.589844 -19.839844 10.113281 -19.503906 C 9.96875 -19.433594 9.847656 -19.335938 9.753906 -19.265625 C 9.394531 -18.953125 9.035156 -18.378906 8.699219 -17.515625 L 2.011719 -0.910156 C 1.941406 -0.695312 1.917969 -0.480469 1.964844 -0.335938 C 1.988281 -0.191406 2.109375 0.0234375 2.492188 0.0234375 L 5.128906 0.0234375 C 5.441406 0.0234375 5.679688 -0.167969 5.800781 -0.480469 L 7.164062 -3.90625 L 12.414062 -3.90625 C 12.675781 -3.90625 12.914062 -4.027344 13.035156 -4.242188 C 13.179688 -4.433594 13.203125 -4.695312 13.132812 -4.9375 L 12.269531 -7.070312 C 12.148438 -7.355469 11.886719 -7.546875 11.574219 -7.546875 L 8.601562 -7.546875 L 11.667969 -15.3125 C 11.695312 -15.359375 11.71875 -15.382812 11.71875 -15.382812 L 11.8125 -15.382812 C 11.8125 -15.382812 11.8125 -15.382812 11.835938 -15.335938 L 17.78125 -0.503906 C 17.898438 -0.167969 18.140625 0.0234375 18.476562 0.0234375 L 21.039062 0.0234375 C 21.421875 0.0234375 21.519531 -0.214844 21.566406 -0.335938 C 21.613281 -0.480469 21.589844 -0.695312 21.496094 -0.910156 Z M 14.761719 -17.515625 "/></g></g></g><g fill="#ff1616" fill-opacity="1"><g transform="translate(144.906038, 237.01166)"><g><path d="M 5.660156 -4.773438 L 4.605469 -5.851562 C 4.507812 -5.949219 4.402344 -5.996094 4.246094 -5.996094 L 1.90625 -5.996094 C 1.75 -5.996094 1.644531 -5.949219 1.546875 -5.851562 L 0.492188 -4.773438 C 0.40625 -4.6875 0.359375 -4.582031 0.359375 -4.460938 L 0.359375 -0.179688 C 0.359375 -0.0820312 0.445312 0 0.539062 0 L 1.34375 0 C 1.4375 0 1.523438 -0.0820312 1.523438 -0.179688 L 1.523438 -1.964844 L 4.628906 -1.964844 L 4.628906 -0.179688 C 4.628906 -0.0820312 4.714844 0 4.808594 0 L 5.613281 0 C 5.707031 0 5.792969 -0.0820312 5.792969 -0.179688 L 5.792969 -4.460938 C 5.792969 -4.582031 5.746094 -4.6875 5.660156 -4.773438 Z M 1.523438 -3.011719 L 1.523438 -4.148438 C 1.523438 -4.234375 1.546875 -4.292969 1.605469 -4.351562 L 1.992188 -4.714844 L 2.0625 -4.773438 C 2.085938 -4.796875 2.121094 -4.808594 2.183594 -4.808594 L 3.96875 -4.808594 C 4.015625 -4.808594 4.054688 -4.796875 4.089844 -4.773438 L 4.160156 -4.714844 L 4.546875 -4.351562 C 4.605469 -4.292969 4.628906 -4.234375 4.628906 -4.148438 L 4.628906 -3.011719 Z M 1.523438 -3.011719 "/></g></g></g><g fill="#ff1616" fill-opacity="1"><g transform="translate(153.455986, 237.01166)"><g><path d="M 0.359375 -5.816406 L 0.359375 -1.425781 C 0.359375 -1.308594 0.40625 -1.199219 0.492188 -1.117188 L 1.488281 -0.144531 C 1.582031 -0.046875 1.691406 0 1.847656 0 L 4.304688 0 C 4.460938 0 4.558594 -0.046875 4.664062 -0.144531 L 5.660156 -1.117188 C 5.746094 -1.199219 5.792969 -1.308594 5.792969 -1.425781 L 5.792969 -5.816406 C 5.792969 -5.914062 5.707031 -5.996094 5.613281 -5.996094 L 4.808594 -5.996094 C 4.714844 -5.996094 4.628906 -5.914062 4.628906 -5.816406 L 4.628906 -1.785156 C 4.628906 -1.703125 4.605469 -1.632812 4.546875 -1.582031 L 4.148438 -1.222656 C 4.113281 -1.199219 4.078125 -1.1875 4.03125 -1.1875 L 2.121094 -1.1875 C 2.0625 -1.1875 2.027344 -1.199219 2.003906 -1.222656 L 1.605469 -1.582031 C 1.535156 -1.632812 1.523438 -1.703125 1.523438 -1.785156 L 1.523438 -5.816406 C 1.523438 -5.914062 1.4375 -5.996094 1.34375 -5.996094 L 0.539062 -5.996094 C 0.445312 -5.996094 0.359375 -5.914062 0.359375 -5.816406 Z M 0.359375 -5.816406 "/></g></g></g><g fill="#ff1616" fill-opacity="1"><g transform="translate(162.005934, 237.01166)"><g><path d="M 6.65625 -5.996094 L 0.539062 -5.996094 C 0.445312 -5.996094 0.359375 -5.914062 0.359375 -5.816406 L 0.359375 -4.917969 C 0.359375 -4.820312 0.445312 -4.738281 0.539062 -4.738281 L 2.972656 -4.738281 L 2.972656 -0.179688 C 2.972656 -0.0820312 3.058594 0 3.152344 0 L 4.054688 0 C 4.148438 0 4.234375 -0.0820312 4.234375 -0.179688 L 4.234375 -4.738281 L 6.65625 -4.738281 C 6.75 -4.738281 6.835938 -4.820312 6.835938 -4.917969 L 6.835938 -5.816406 C 6.835938 -5.914062 6.75 -5.996094 6.65625 -5.996094 Z M 6.65625 -5.996094 "/></g></g></g><g fill="#ff1616" fill-opacity="1"><g transform="translate(171.598849, 237.01166)"><g><path d="M 0.359375 -1.535156 C 0.359375 -1.414062 0.40625 -1.308594 0.492188 -1.222656 L 1.546875 -0.144531 C 1.644531 -0.046875 1.75 0 1.90625 0 L 4.246094 0 C 4.402344 0 4.507812 -0.046875 4.605469 -0.144531 L 5.660156 -1.222656 C 5.746094 -1.308594 5.792969 -1.414062 5.792969 -1.535156 L 5.792969 -4.460938 C 5.792969 -4.582031 5.746094 -4.6875 5.660156 -4.773438 L 4.605469 -5.851562 C 4.507812 -5.949219 4.402344 -5.996094 4.246094 -5.996094 L 1.90625 -5.996094 C 1.75 -5.996094 1.644531 -5.949219 1.546875 -5.851562 L 0.492188 -4.773438 C 0.40625 -4.6875 0.359375 -4.582031 0.359375 -4.460938 Z M 1.523438 -1.847656 L 1.523438 -4.148438 C 1.523438 -4.234375 1.546875 -4.292969 1.605469 -4.351562 L 1.992188 -4.714844 L 2.0625 -4.773438 C 2.085938 -4.796875 2.121094 -4.808594 2.183594 -4.808594 L 3.96875 -4.808594 C 4.015625 -4.808594 4.054688 -4.796875 4.089844 -4.773438 L 4.160156 -4.714844 L 4.546875 -4.351562 C 4.605469 -4.292969 4.628906 -4.234375 4.628906 -4.148438 L 4.628906 -1.847656 C 4.628906 -1.761719 4.605469 -1.703125 4.546875 -1.644531 L 4.160156 -1.28125 L 4.089844 -1.222656 C 4.054688 -1.199219 4.015625 -1.1875 3.96875 -1.1875 L 2.183594 -1.1875 C 2.121094 -1.1875 2.085938 -1.199219 2.0625 -1.222656 L 1.992188 -1.28125 L 1.605469 -1.644531 C 1.546875 -1.703125 1.523438 -1.761719 1.523438 -1.847656 Z M 1.523438 -1.847656 "/></g></g></g><g fill="#ff1616" fill-opacity="1"><g transform="translate(180.148798, 237.01166)"><g><path d="M 9.75 -4.773438 L 8.695312 -5.851562 C 8.609375 -5.949219 8.492188 -5.996094 8.335938 -5.996094 L 6.1875 -5.996094 C 6.03125 -5.996094 5.925781 -5.949219 5.828125 -5.851562 L 5.230469 -5.242188 L 4.628906 -5.851562 C 4.53125 -5.949219 4.425781 -5.996094 4.269531 -5.996094 L 1.90625 -5.996094 C 1.75 -5.996094 1.644531 -5.949219 1.546875 -5.851562 L 0.492188 -4.773438 C 0.417969 -4.6875 0.359375 -4.582031 0.359375 -4.460938 L 0.359375 -0.179688 C 0.359375 -0.0820312 0.445312 0 0.539062 0 L 1.34375 0 C 1.4375 0 1.523438 -0.0820312 1.523438 -0.179688 L 1.523438 -4.101562 C 1.523438 -4.183594 1.546875 -4.246094 1.605469 -4.304688 L 2.097656 -4.773438 C 2.132812 -4.796875 2.171875 -4.808594 2.21875 -4.808594 L 3.992188 -4.808594 C 4.042969 -4.808594 4.078125 -4.796875 4.113281 -4.773438 L 4.570312 -4.351562 C 4.605469 -4.328125 4.628906 -4.28125 4.640625 -4.246094 L 4.640625 -0.179688 C 4.640625 -0.0820312 4.726562 0 4.820312 0 L 5.636719 0 C 5.730469 0 5.816406 -0.0820312 5.816406 -0.179688 L 5.816406 -4.246094 C 5.828125 -4.28125 5.851562 -4.328125 5.886719 -4.351562 L 6.34375 -4.773438 C 6.378906 -4.796875 6.414062 -4.808594 6.464844 -4.808594 L 8.058594 -4.808594 C 8.105469 -4.808594 8.144531 -4.796875 8.179688 -4.773438 L 8.632812 -4.328125 C 8.695312 -4.28125 8.71875 -4.210938 8.71875 -4.125 L 8.71875 -0.179688 C 8.71875 -0.0820312 8.800781 0 8.898438 0 L 9.703125 0 C 9.796875 0 9.882812 -0.0820312 9.882812 -0.179688 L 9.882812 -4.460938 C 9.882812 -4.582031 9.832031 -4.6875 9.75 -4.773438 Z M 9.75 -4.773438 "/></g></g></g><g fill="#ff1616" fill-opacity="1"><g transform="translate(192.786725, 237.01166)"><g><path d="M 0.359375 -1.535156 C 0.359375 -1.414062 0.40625 -1.308594 0.492188 -1.222656 L 1.546875 -0.144531 C 1.644531 -0.046875 1.75 0 1.90625 0 L 4.246094 0 C 4.402344 0 4.507812 -0.046875 4.605469 -0.144531 L 5.660156 -1.222656 C 5.746094 -1.308594 5.792969 -1.414062 5.792969 -1.535156 L 5.792969 -4.460938 C 5.792969 -4.582031 5.746094 -4.6875 5.660156 -4.773438 L 4.605469 -5.851562 C 4.507812 -5.949219 4.402344 -5.996094 4.246094 -5.996094 L 1.90625 -5.996094 C 1.75 -5.996094 1.644531 -5.949219 1.546875 -5.851562 L 0.492188 -4.773438 C 0.40625 -4.6875 0.359375 -4.582031 0.359375 -4.460938 Z M 1.523438 -1.847656 L 1.523438 -4.148438 C 1.523438 -4.234375 1.546875 -4.292969 1.605469 -4.351562 L 1.992188 -4.714844 L 2.0625 -4.773438 C 2.085938 -4.796875 2.121094 -4.808594 2.183594 -4.808594 L 3.96875 -4.808594 C 4.015625 -4.808594 4.054688 -4.796875 4.089844 -4.773438 L 4.160156 -4.714844 L 4.546875 -4.351562 C 4.605469 -4.292969 4.628906 -4.234375 4.628906 -4.148438 L 4.628906 -1.847656 C 4.628906 -1.761719 4.605469 -1.703125 4.546875 -1.644531 L 4.160156 -1.28125 L 4.089844 -1.222656 C 4.054688 -1.199219 4.015625 -1.1875 3.96875 -1.1875 L 2.183594 -1.1875 C 2.121094 -1.1875 2.085938 -1.199219 2.0625 -1.222656 L 1.992188 -1.28125 L 1.605469 -1.644531 C 1.546875 -1.703125 1.523438 -1.761719 1.523438 -1.847656 Z M 1.523438 -1.847656 "/></g></g></g><g fill="#ff1616" fill-opacity="1"><g transform="translate(201.336674, 237.01166)"><g><path d="M 6.65625 -5.996094 L 0.539062 -5.996094 C 0.445312 -5.996094 0.359375 -5.914062 0.359375 -5.816406 L 0.359375 -4.917969 C 0.359375 -4.820312 0.445312 -4.738281 0.539062 -4.738281 L 2.972656 -4.738281 L 2.972656 -0.179688 C 2.972656 -0.0820312 3.058594 0 3.152344 0 L 4.054688 0 C 4.148438 0 4.234375 -0.0820312 4.234375 -0.179688 L 4.234375 -4.738281 L 6.65625 -4.738281 C 6.75 -4.738281 6.835938 -4.820312 6.835938 -4.917969 L 6.835938 -5.816406 C 6.835938 -5.914062 6.75 -5.996094 6.65625 -5.996094 Z M 6.65625 -5.996094 "/></g></g></g><g fill="#ff1616" fill-opacity="1"><g transform="translate(210.929592, 237.01166)"><g><path d="M 0.539062 0 L 1.4375 0 C 1.535156 0 1.617188 -0.0820312 1.617188 -0.179688 L 1.617188 -5.816406 C 1.617188 -5.914062 1.535156 -5.996094 1.4375 -5.996094 L 0.539062 -5.996094 C 0.445312 -5.996094 0.359375 -5.914062 0.359375 -5.816406 L 0.359375 -0.179688 C 0.359375 -0.0820312 0.445312 0 0.539062 0 Z M 0.539062 0 "/></g></g></g><g fill="#ff1616" fill-opacity="1"><g transform="translate(215.307632, 237.01166)"><g><path d="M 5.875 -5.996094 L 5.074219 -5.996094 C 4.976562 -5.996094 4.894531 -5.914062 4.894531 -5.816406 L 4.894531 -2.722656 C 4.894531 -2.636719 4.867188 -2.589844 4.808594 -2.519531 L 3.800781 -1.28125 L 3.730469 -1.222656 C 3.695312 -1.199219 3.65625 -1.1875 3.609375 -1.1875 L 2.816406 -1.1875 C 2.757812 -1.1875 2.722656 -1.199219 2.699219 -1.222656 L 2.625 -1.28125 L 1.605469 -2.519531 C 1.546875 -2.589844 1.523438 -2.636719 1.523438 -2.722656 L 1.523438 -5.816406 C 1.523438 -5.914062 1.4375 -5.996094 1.34375 -5.996094 L 0.539062 -5.996094 C 0.445312 -5.996094 0.359375 -5.914062 0.359375 -5.816406 L 0.359375 -2.351562 C 0.359375 -2.230469 0.40625 -2.132812 0.492188 -2.039062 L 2.121094 -0.144531 C 2.207031 -0.0351562 2.328125 0 2.484375 0 L 3.945312 0 C 4.101562 0 4.210938 -0.0351562 4.304688 -0.144531 L 5.925781 -2.039062 C 6.007812 -2.132812 6.054688 -2.230469 6.054688 -2.351562 L 6.054688 -5.816406 C 6.054688 -5.914062 5.972656 -5.996094 5.875 -5.996094 Z M 5.875 -5.996094 "/></g></g></g><g fill="#ff1616" fill-opacity="1"><g transform="translate(224.121322, 237.01166)"><g><path d="M 1.703125 -4.351562 L 2.085938 -4.714844 C 2.160156 -4.785156 2.207031 -4.808594 2.265625 -4.808594 L 5.433594 -4.808594 C 5.527344 -4.808594 5.613281 -4.894531 5.613281 -4.988281 L 5.613281 -5.816406 C 5.613281 -5.914062 5.527344 -5.996094 5.433594 -5.996094 L 1.847656 -5.996094 C 1.703125 -5.996094 1.605469 -5.960938 1.5 -5.851562 L 0.503906 -4.867188 C 0.433594 -4.796875 0.359375 -4.675781 0.359375 -4.558594 L 0.359375 -1.464844 C 0.359375 -1.308594 0.40625 -1.199219 0.503906 -1.101562 L 1.5 -0.132812 C 1.582031 -0.046875 1.691406 0 1.8125 0 L 5.433594 0 C 5.527344 0 5.613281 -0.0820312 5.613281 -0.179688 L 5.613281 -0.984375 C 5.613281 -1.078125 5.527344 -1.164062 5.433594 -1.164062 L 2.277344 -1.164062 C 2.195312 -1.164062 2.132812 -1.1875 2.074219 -1.246094 L 1.65625 -1.703125 C 1.632812 -1.738281 1.617188 -1.773438 1.617188 -1.824219 L 1.617188 -2.433594 L 4.84375 -2.433594 C 4.941406 -2.433594 5.023438 -2.519531 5.023438 -2.613281 L 5.023438 -3.441406 C 5.023438 -3.539062 4.941406 -3.621094 4.84375 -3.621094 L 1.617188 -3.621094 L 1.617188 -4.148438 C 1.617188 -4.234375 1.644531 -4.292969 1.703125 -4.351562 Z M 1.703125 -4.351562 "/></g></g></g></svg>